<?xml version="1.0" encoding="utf-8"?>
<!-- Generator: Adobe Illustrator 15.1.0, SVG Export Plug-In . SVG Version: 6.00 Build 0)  -->
<!DOCTYPE svg PUBLIC "-//W3C//DTD SVG 1.1//EN" "http://www.w3.org/Graphics/SVG/1.1/DTD/svg11.dtd">
<svg version="1.1" id="Layer_1" xmlns="http://www.w3.org/2000/svg" xmlns:xlink="http://www.w3.org/1999/xlink" x="0px" y="0px"
	 width="1656px" height="324.576px" viewBox="0 1205.712 1656 324.576" enable-background="new 0 1205.712 1656 324.576"
	 xml:space="preserve">
<title>support</title>
<path fill="#F7931A" d="M43.718,1205.712h1568.563c24.51,0,43.719,19.872,43.719,43.719v237.139
	c0,24.509-19.872,43.719-43.719,43.719l0,0H43.718c-23.846,0-43.718-19.872-43.718-43.719l0,0v-237.139
	C0,1225.584,19.872,1205.712,43.718,1205.712z"/>
<g enable-background="new    ">
	<path fill="#FFFFFF" d="M168.25,1330.243c-3.974-5.299-10.598-9.273-19.209-9.273c-9.273,0-19.872,5.299-19.872,17.223
		c0,11.923,9.936,14.572,19.872,17.885c13.248,4.637,27.158,8.611,27.158,27.158s-15.235,26.496-30.47,26.496
		c-11.261,0-22.521-4.637-29.146-13.91l7.949-5.962c3.975,6.624,11.261,11.923,21.197,11.923c9.273,0,20.534-5.961,20.534-17.885
		c0-13.248-10.598-15.897-22.521-19.872c-12.585-3.975-25.171-9.273-25.171-25.833c0-17.885,15.897-25.834,29.808-25.834
		c12.586,0,21.859,5.299,25.834,11.261L168.25,1330.243z"/>
	<path fill="#FFFFFF" d="M241.114,1408.406c0-3.312-0.663-7.948-0.663-10.599l0,0c-3.312,7.287-12.585,11.924-21.197,11.924
		c-15.235,0-23.184-9.937-23.184-25.172v-37.756h8.611v33.782c0,12.585,3.975,21.196,16.56,21.196
		c9.273,0,18.547-7.286,18.547-23.846v-31.133h8.611v47.692c0,3.312,0,9.273,0.663,13.248h-7.949V1408.406z"/>
	<path fill="#FFFFFF" d="M281.52,1439.539h-8.611v-92.735h8.611v10.598h0.663c5.299-7.948,14.573-11.923,23.184-11.923
		c19.21,0,31.795,13.91,31.795,32.458c0,17.885-12.585,32.457-31.795,32.457c-8.611,0-17.885-4.637-23.184-11.923h-0.663V1439.539z
		 M304.042,1352.765c-13.911,0-23.847,10.599-23.847,24.509s9.936,24.509,23.847,24.509c14.572,0,23.184-11.261,23.184-24.509
		S318.614,1352.765,304.042,1352.765z"/>
	<path fill="#FFFFFF" d="M364.32,1439.539h-8.611v-92.735h8.611v10.598h0.662c5.299-7.948,14.572-11.923,23.184-11.923
		c19.21,0,31.796,13.91,31.796,32.458c0,17.885-12.586,32.457-31.796,32.457c-8.611,0-17.885-4.637-23.184-11.923h-0.662V1439.539z
		 M386.842,1352.765c-13.91,0-23.847,10.599-23.847,24.509s9.937,24.509,23.847,24.509c14.572,0,23.184-11.261,23.184-24.509
		S401.414,1352.765,386.842,1352.765z"/>
	<path fill="#FFFFFF" d="M466.33,1409.731c-19.21,0-32.458-13.91-32.458-32.458c0-18.547,13.91-32.457,32.458-32.457
		c19.209,0,32.457,13.91,32.457,32.457C499.449,1395.821,485.539,1409.731,466.33,1409.731z M466.33,1352.765
		c-13.911,0-23.185,11.261-23.185,24.509c0,13.91,9.273,24.509,23.185,24.509c14.572,0,23.184-10.599,23.184-24.509
		C490.176,1364.025,480.902,1352.765,466.33,1352.765z"/>
</g>
<g enable-background="new    ">
	<path fill="#FFFFFF" d="M518.659,1346.804h8.611c0,3.312,0.662,7.948,0.662,10.598l0,0c3.313-7.286,11.261-11.923,19.872-11.923
		c1.987,0,3.975,0,5.962,0.662l-1.325,8.611c-1.324-0.662-3.975-0.662-5.961-0.662c-9.274,0-17.885,6.624-17.885,23.184v31.133
		h-8.611v-47.692C519.321,1357.401,519.321,1351.44,518.659,1346.804z"/>
</g>
<g enable-background="new    ">
	<path fill="#FFFFFF" d="M592.848,1354.09h-17.222v35.77c0,9.273,3.974,11.261,9.273,11.261c2.649,0,5.299-0.662,7.948-1.987
		l0.663,7.949c-3.313,1.324-6.624,1.987-10.599,1.987c-6.624,0-15.897-2.65-15.897-16.561v-38.419h-12.586v-7.286h12.586v-17.223
		h8.611v17.223h17.222V1354.09z"/>
	<path fill="#FFFFFF" d="M667.699,1409.731c-19.21,0-32.458-13.91-32.458-32.458c0-18.547,13.911-32.457,32.458-32.457
		c19.21,0,32.458,13.91,32.458,32.457C700.156,1395.821,686.909,1409.731,667.699,1409.731z M667.699,1352.765
		c-13.91,0-23.184,11.261-23.184,24.509c0,13.91,9.273,24.509,23.184,24.509c14.572,0,23.184-10.599,23.184-24.509
		C690.883,1364.025,681.609,1352.765,667.699,1352.765z"/>
	<path fill="#FFFFFF" d="M727.315,1346.804c0,3.312,0.662,7.948,0.662,10.598l0,0c3.313-7.286,12.586-11.923,21.197-11.923
		c15.235,0,23.184,9.936,23.184,25.171v37.757h-8.611v-33.782c0-12.586-3.975-21.197-16.56-21.197
		c-9.273,0-18.548,7.287-18.548,23.847v31.133h-8.611v-47.692c0-3.313,0-9.273-0.662-13.248h7.949V1346.804z"/>
</g>
<g>
	<g>
		<path fill="#FFFFFF" d="M901.837,1369.701l-4.632,18.531c5.662,1.543,23.163,7.205,25.735-3.09
			C925.515,1374.334,907.499,1371.76,901.837,1369.701z"/>
		<path fill="#FFFFFF" d="M927.06,1296.096c-40.148-10.295-81.326,14.412-91.62,55.075c-10.295,40.147,14.411,81.325,55.074,91.62
			c40.148,10.295,81.326-14.412,91.621-55.074C992.428,1347.054,967.722,1305.876,927.06,1296.096z M941.985,1358.377
			c-1.028,7.721-5.147,11.324-9.779,11.324c7.721,3.604,11.323,9.779,7.721,20.074c-4.633,12.867-14.927,13.896-29.339,11.324
			l-3.603,13.896l-8.236-2.059l3.603-13.383c-2.058-0.514-4.632-1.029-6.691-1.543l-3.603,13.896l-8.235-2.059l3.603-13.898
			c-2.06-0.514-4.117-1.027-6.177-1.543l-10.809-2.574l4.117-9.264l6.177,1.543c2.06,0.516,3.089-1.029,3.604-2.059l5.662-21.618
			c0.515,0,0.515,0,1.029,0c-0.515-0.516-1.029-0.516-1.029-0.516l4.117-15.441c0-1.544-0.514-3.604-4.117-4.632l-6.177-1.545
			l2.06-8.75l11.323,3.089c1.544,0,3.089,0.515,5.146,1.028l3.603-13.896l8.237,2.059l-3.089,13.383
			c2.06,0.515,4.632,1.029,6.691,1.544l3.089-13.383l8.234,2.059l-3.603,13.897C935.809,1342.936,943.529,1348.083,941.985,1358.377
			z"/>
		<path fill="#FFFFFF" d="M908.014,1345.509l-4.117,16.472c4.632,1.029,19.044,5.662,21.618-3.604
			C928.089,1348.598,913.162,1346.539,908.014,1345.509z"/>
	</g>
	<path fill="#FFFFFF" d="M1054.71,1339.333c6.176,0,11.324,1.03,15.956,3.089s8.236,5.147,11.323,8.75
		c3.088,3.604,5.147,8.235,6.691,12.868c1.545,5.148,2.06,10.294,2.06,15.957c0,8.75-1.544,16.986-4.632,25.221
		c-3.089,7.721-7.723,14.928-13.383,20.588c-5.663,5.664-12.354,10.295-20.075,13.898c-7.72,3.604-15.957,5.148-24.706,5.148
		c-1.029,0-3.089,0-6.177,0c-3.089,0-6.177-0.516-9.78-1.031c-3.603-0.514-7.721-1.029-11.838-2.059s-8.236-2.572-11.84-4.117
		l32.943-139.489l29.854-4.633l-11.84,49.413c2.574-1.029,5.148-2.059,7.721-2.573
		C1049.048,1339.848,1052.136,1339.333,1054.71,1339.333L1054.71,1339.333z M1030.002,1421.688c4.634,0,8.751-1.029,12.869-3.088
		c4.117-2.059,7.206-5.146,10.294-8.75c3.089-3.604,5.148-7.721,6.691-12.354c1.544-4.633,2.574-9.264,2.574-14.412
		c0-6.176-1.03-10.809-3.089-14.412c-2.06-3.603-5.662-5.147-11.324-5.147c-1.544,0-4.118,0.515-7.206,1.029
		c-3.089,0.515-5.661,2.059-7.721,4.118l-12.868,52.502c0.516,0,1.545,0.514,2.06,0.514c0.514,0,1.028,0,2.06,0.516
		c0.514,0,1.543,0,2.058,0C1027.43,1421.688,1028.459,1421.688,1030.002,1421.688L1030.002,1421.688z"/>
	<path fill="#FFFFFF" d="M1121.623,1442.277h-28.31l24.192-100.885h28.824L1121.623,1442.277z M1135.006,1329.039
		c-4.117,0-7.722-1.029-10.809-3.604c-3.089-2.573-4.634-6.176-4.634-10.809c0-2.574,0.515-5.147,1.545-7.721
		c1.029-2.574,2.573-4.633,4.118-6.177c1.543-1.545,4.117-3.089,6.177-4.117c2.572-1.03,5.146-1.545,7.721-1.545
		c4.117,0,7.721,1.029,10.809,3.604c3.089,2.573,4.632,6.177,4.632,10.809c0,2.574-0.515,5.147-1.543,7.722
		c-1.029,2.573-2.574,4.632-4.118,6.176c-1.545,1.544-4.117,3.089-6.177,4.118S1138.095,1329.039,1135.006,1329.039
		L1135.006,1329.039z"/>
	<path fill="#FFFFFF" d="M1170.521,1316.17l29.854-4.633l-7.206,29.854h31.912l-5.662,23.162h-31.397l-8.235,35.516
		c-1.03,3.088-1.03,5.662-1.545,8.234c0,2.574,0,4.633,1.03,6.691c0.515,2.059,2.059,3.09,4.117,4.117
		c2.059,1.031,4.633,1.545,8.75,1.545c3.088,0,6.177-0.514,8.751-1.029c3.088-0.516,5.662-1.543,8.749-2.574l2.06,21.619
		c-3.603,1.543-8.235,2.574-12.354,3.604c-4.632,1.029-9.778,1.543-15.956,1.543c-8.751,0-15.442-1.543-20.589-4.117
		c-4.632-2.574-8.236-6.176-10.294-10.809c-2.06-4.633-3.089-9.781-2.574-15.441c0.515-5.662,1.029-11.84,2.574-18.531
		L1170.521,1316.17L1170.521,1316.17z"/>
	<path fill="#FFFFFF" d="M1223.537,1402.129c0-8.75,1.545-16.986,4.118-24.707s6.691-14.412,11.839-20.074
		c5.146-5.662,11.838-10.294,19.044-13.383s15.957-5.147,25.223-5.147c5.66,0,10.809,0.516,15.44,1.545s8.751,2.573,12.354,4.117
		l-9.78,22.133c-2.574-1.029-5.148-2.059-7.721-2.573c-2.573-1.029-6.177-1.029-10.294-1.029c-9.266,0-16.986,3.088-22.648,9.779
		c-5.663,6.691-8.235,15.441-8.235,26.252c0,6.689,1.544,11.838,4.118,15.955c2.573,4.117,8.234,6.178,15.44,6.178
		c3.603,0,7.206-0.516,10.809-1.029c3.604-0.516,6.691-1.545,9.266-3.09l2.06,22.648c-3.603,1.545-7.722,2.574-11.84,3.604
		c-4.117,1.029-9.779,1.543-15.44,1.543c-7.721,0-14.412-1.029-20.074-3.602c-5.663-2.574-9.78-5.148-13.383-9.266
		c-3.604-4.117-6.177-8.236-7.721-13.896C1224.052,1413.453,1223.537,1407.791,1223.537,1402.129L1223.537,1402.129z"/>
	<path fill="#FFFFFF" d="M1349.645,1444.85c-6.691,0-12.868-1.029-17.5-3.088c-5.148-2.059-9.266-5.146-12.354-8.75
		c-3.088-3.604-5.662-8.234-7.206-13.383c-1.543-5.146-2.573-10.809-2.573-16.986c0-7.721,1.03-15.441,3.603-23.162
		c2.574-7.721,6.177-14.412,10.811-20.587c4.632-6.178,10.809-11.324,18.015-14.928c7.206-4.117,14.927-5.662,24.192-5.662
		c6.691,0,12.353,1.029,17.5,3.089c5.146,2.059,9.264,5.146,12.353,8.75c3.088,3.604,5.662,8.235,7.206,13.383
		c1.545,5.147,2.574,10.809,2.574,16.985c0,7.723-1.029,15.441-3.604,23.164c-2.574,7.721-6.177,14.412-10.809,20.588
		s-10.81,11.324-17.501,14.928C1367.146,1443.307,1358.908,1444.85,1349.645,1444.85L1349.645,1444.85z M1363.542,1363.01
		c-4.117,0-7.721,1.029-11.325,3.603c-3.087,2.575-5.661,5.663-8.234,9.266c-2.059,3.602-3.604,7.721-5.146,12.354
		c-1.03,4.631-1.545,8.75-1.545,12.352c0,6.178,1.03,11.324,3.088,14.928c2.06,3.602,5.663,5.146,11.323,5.146
		c4.119,0,7.723-1.029,11.325-3.604c3.089-2.572,5.661-5.66,8.235-9.264c2.06-3.604,3.603-7.721,5.147-12.354
		c1.029-4.633,1.544-8.75,1.544-12.354c0-6.176-1.029-11.324-3.089-14.927C1372.806,1364.554,1369.203,1363.01,1363.542,1363.01
		L1363.542,1363.01z"/>
	<path fill="#FFFFFF" d="M1437.146,1442.277h-28.31l24.192-100.885h28.823L1437.146,1442.277z M1451.044,1329.039
		c-4.117,0-7.721-1.029-10.809-3.604c-3.089-2.573-4.632-6.176-4.632-10.809c0-2.574,0.514-5.147,1.543-7.721
		c1.029-2.574,2.574-4.633,4.117-6.177c1.546-1.545,4.118-3.089,6.178-4.117c2.573-1.03,4.632-1.545,7.72-1.545
		c4.118,0,7.721,1.029,10.81,3.604c3.088,2.573,4.633,6.177,4.633,10.809c0,2.574-0.515,5.147-1.545,7.722
		c-1.028,2.573-2.572,4.632-4.117,6.176c-1.544,1.544-4.117,3.089-6.177,4.118
		C1456.192,1328.524,1453.618,1329.039,1451.044,1329.039z"/>
	<path fill="#FFFFFF" d="M1481.928,1346.024c2.06-0.515,4.632-1.543,7.206-2.059c2.573-1.029,5.662-1.544,8.75-2.059
		c3.089-0.515,6.691-1.544,10.81-1.544c4.117-0.515,8.749-0.515,13.897-0.515c14.926,0,25.221,4.117,30.883,12.867
		c5.661,8.751,6.691,20.589,3.089,35.517l-12.868,54.559h-28.824l12.867-53.529c0.516-3.09,1.545-6.691,2.06-9.781
		c0.515-3.088,0.515-5.66,0-8.234s-1.544-4.118-3.604-5.662c-2.06-1.545-4.632-2.06-8.751-2.06c-3.603,0-7.721,0.515-11.323,1.029
		l-18.529,78.239h-28.825L1481.928,1346.024z"/>
</g>
</svg>
